<?xml version="1.0" encoding="UTF-8" standalone="no"?>
<!-- Created with Inkscape (http://www.inkscape.org/) -->

<svg
   xmlns:dc="http://purl.org/dc/elements/1.1/"
   xmlns:cc="http://creativecommons.org/ns#"
   xmlns:rdf="http://www.w3.org/1999/02/22-rdf-syntax-ns#"
   xmlns:svg="http://www.w3.org/2000/svg"
   xmlns="http://www.w3.org/2000/svg"
   xmlns:sodipodi="http://sodipodi.sourceforge.net/DTD/sodipodi-0.dtd"
   xmlns:inkscape="http://www.inkscape.org/namespaces/inkscape"
   width="100"
   height="100"
   id="svg4048"
   version="1.1"
   inkscape:version="0.48.5 r10040"
   sodipodi:docname="glyph2.svg">
  <defs
     id="defs4050" />
  <sodipodi:namedview
     id="base"
     pagecolor="#ffffff"
     bordercolor="#666666"
     borderopacity="1.0"
     inkscape:pageopacity="0.0"
     inkscape:pageshadow="2"
     inkscape:zoom="7.9195959"
     inkscape:cx="75.223021"
     inkscape:cy="72.850347"
     inkscape:document-units="px"
     inkscape:current-layer="layer2"
     showgrid="false"
     inkscape:window-width="1411"
     inkscape:window-height="834"
     inkscape:window-x="20"
     inkscape:window-y="20"
     inkscape:window-maximized="0" />
  <metadata
     id="metadata4053">
    <rdf:RDF>
      <cc:Work
         rdf:about="">
        <dc:format>image/svg+xml</dc:format>
        <dc:type
           rdf:resource="http://purl.org/dc/dcmitype/StillImage" />
        <dc:title />
      </cc:Work>
    </rdf:RDF>
  </metadata>
  <g
     inkscape:groupmode="layer"
     id="layer2"
     inkscape:label="Layer">
    <path
       inkscape:connector-curvature="0"
       style="fill:none;stroke:#000000;stroke-width:0.83195472px;stroke-linecap:butt;stroke-linejoin:miter;stroke-opacity:1"
       d="m 65.413628,44.596594 c 0,0 -4.885096,2.943381 -5.147719,7.565588 -0.262623,4.622207 2.921825,9.718346 9.853463,9.879462 2.258582,0.0525 3.357703,-0.271999 4.471757,-1.091941 0.221125,-1.345187 0.894143,-3.80279 2.469865,-5.69369 2.142017,-2.570465 3.337403,-2.547046 4.263768,-3.093831 0.03344,-1.964969 -0.633043,-5.132936 -2.313874,-6.603641 -1.680806,0.157573 -4.300424,0.331643 -6.889625,0.052 -2.589201,-0.279645 -5.593905,-0.751289 -6.707635,-1.013945 z m 4.887734,3.795793 c 4.464602,0.262623 4.393736,3.919979 4.393761,4.497755 -0.105051,1.208073 -1.136675,3.952842 -4.445758,3.847791 -3.6809,-0.116857 -4.392446,-2.74263 -4.523754,-4.003782 -0.131307,-1.261152 0.793943,-4.236746 4.575751,-4.341764 z"
       id="path4752" />
    <path
       style="fill:none;stroke:#000000;stroke-width:0.83195472px;stroke-linecap:round;stroke-linejoin:round;stroke-opacity:1"
       d="m 81.162406,70.969341 c 4.044431,0 6.823168,-2.719826 6.775739,-5.98786 -0.0297,-2.04893 -2.468676,-2.206053 -3.204033,-2.206053 -0.735348,0 -2.363625,0.315153 -2.363625,1.470705 0,-1.155552 1.628277,-1.470705 2.363625,-1.470705 0.735357,0 3.174332,0.157123 3.204033,2.206053 0.04742,3.268034 -2.731308,5.98786 -6.775739,5.98786 -4.044423,0 -5.147453,-1.838378 -6.355527,-5.199983 1.208074,3.361605 2.311104,5.199983 6.355527,5.199983 z"
       id="path4761"
       inkscape:connector-curvature="0"
       sodipodi:nodetypes="ssscssscs" />
    <path
       style="fill:none;stroke:#000000;stroke-width:0.83195472px;stroke-linecap:round;stroke-linejoin:round;stroke-opacity:1"
       d="m 81.109885,74.068323 c 6.303005,-0.105051 9.454516,-4.674737 9.454516,-8.666639 0,-3.991901 -2.206053,-5.88281 -5.410085,-5.88281 -3.204032,0 -4.779779,3.361605 -4.779779,4.044432 0,-0.682827 1.575747,-4.044432 4.779779,-4.044432 3.204032,0 5.410085,1.890909 5.410085,5.88281 0,3.991902 -3.151511,8.561588 -9.454516,8.666639 -6.303006,0.105051 -9.086834,-4.359584 -9.086834,-7.878761 0,3.519177 2.783828,7.983812 9.086834,7.878761 z"
       id="path4765"
       inkscape:connector-curvature="0"
       sodipodi:nodetypes="ssscssscs" />
    <g
       id="g4052">
      <path
         sodipodi:nodetypes="ccssssc"
         inkscape:connector-curvature="0"
         id="path4759"
         d="m 74.885657,66.005725 c -2.566946,0.108945 -4.515367,0.377949 -7.668659,-0.157572 -0.06564,4.779779 1.28463,9.51138 1.28181,10.608446 -0.01323,5.140415 2.514649,7.092646 7.251117,7.168063 19.610329,0.312233 21.419897,-14.979444 21.467401,-22.21022 0.05366,-8.170519 -9.063056,-9.968615 -11.587939,-10.028025 -3.156968,-0.07429 -12.101696,1.601322 -10.74373,14.619308 z"
         style="fill:none;stroke:#000000;stroke-width:0.83195472px;stroke-linecap:butt;stroke-linejoin:miter;stroke-opacity:1" />
      <path
         sodipodi:nodetypes="ccsscsccccsssc"
         inkscape:connector-curvature="0"
         id="path4757"
         d="m 57.625193,47.449483 c 2.785567,-0.07429 2.637005,1.337076 2.599858,2.822706 -0.03711,1.485638 -0.854234,4.531183 -6.313937,3.974073 -5.459703,-0.557119 -6.871055,-1.968463 -6.871055,-5.274002 0,-3.305531 6.202521,-11.402231 6.982479,-11.885064 3.49124,5.422556 11.803191,9.257992 21.824285,8.682862 11.12147,-0.638284 19.81251,-4.057177 22.333707,-8.994537 0.441319,5.276373 -0.04992,20.341034 -0.995334,22.336985 C 96.499732,57.87722 94.409288,51.232664 85.104432,51.36848 75.019619,51.578574 73.484329,63.197204 74.895691,66.057048 c -0.742819,0 -1.930476,0.06573 -3.936935,0.111416 -6.950773,0.158396 -11.402238,-3.714079 -17.121927,-3.936926 -4.231488,-0.164869 -4.828307,-0.817096 -5.051155,-2.822698 -0.222839,-2.00561 2.525582,-3.194115 2.599859,-5.422564"
         style="fill:none;stroke:#000000;stroke-width:0.83195472px;stroke-linecap:butt;stroke-linejoin:miter;stroke-opacity:1" />
      <path
         sodipodi:nodetypes="cczsccc"
         inkscape:connector-curvature="0"
         id="path4769"
         d="m 64.199124,65.12852 c 1.002805,10.250872 -6.016813,11.439377 -14.484922,12.627891 -0.433565,2.29256 -0.698883,4.314592 -0.519971,5.348279 0.178903,1.033687 0.740023,3.098275 4.456897,3.194107 2.116651,0.05458 12.665021,-0.297124 15.450589,-6.053951 -0.631396,-3.974073 -2.077358,-8.36998 -1.894186,-14.410645 -1.26532,-0.172414 -1.522777,-0.259986 -3.008407,-0.705681 z"
         style="fill:none;stroke:#000000;stroke-width:0.83195472px;stroke-linecap:butt;stroke-linejoin:miter;stroke-opacity:1" />
    </g>
    <g
       id="g4039">
      <path
         sodipodi:nodetypes="cscc"
         inkscape:connector-curvature="0"
         id="path4771"
         d="m 52.462623,62.157261 c 0.07429,2.934121 0.05574,4.921153 2.841275,5.032577 2.785559,0.111424 6.241549,-1.860184 8.356677,-2.247018 -4.180231,-1.241077 -6.573923,-2.711282 -11.197952,-2.785559 z"
         style="fill:none;stroke:#000000;stroke-width:0.83195472px;stroke-linecap:butt;stroke-linejoin:miter;stroke-opacity:1" />
      <path
         sodipodi:nodetypes="csscsc"
         inkscape:connector-curvature="0"
         id="path4773"
         d="m 62.384698,65.664307 c -2.599992,-0.02629 -2.760218,2.554858 -2.88888,3.046461 -0.207847,0.794134 -2.810093,4.648463 -5.856545,4.753514 -3.526872,0.121615 -3.808073,3.83433 -3.808073,4.228268 9.927241,-1.0505 14.143513,-3.456256 14.444398,-10.058548 0.100683,-2.209381 -1.024237,-1.969695 -1.8909,-1.969695 z"
         style="fill:none;stroke:#000000;stroke-width:0.83195472px;stroke-linecap:butt;stroke-linejoin:miter;stroke-opacity:1" />
    </g>
    <g
       id="g4068">
      <path
         sodipodi:nodetypes="csccsccsc"
         inkscape:connector-curvature="0"
         id="path4750"
         d="m 82.212433,11.645722 c -14.187806,-0.222848 -25.635486,9.433626 -25.63542,19.13841 0,0.519972 0.08634,1.569416 0.261866,2.700401 -0.838935,1.130975 -2.813695,3.53926 -2.813695,3.53926 0,0 3.971427,8.568651 20.461959,8.568651 16.490531,0 22.58163,-6.536785 23.770135,-8.765234 0.297124,-2.079887 -1.039943,-7.502451 -1.039943,-7.502451 0,0 0.519971,-2.525573 0.445686,-4.754022 C 97.588728,22.34228 96.103106,11.868569 82.212433,11.645722 z"
         style="fill:none;stroke:#000000;stroke-width:0.83195472px;stroke-linecap:butt;stroke-linejoin:miter;stroke-opacity:1" />
      <path
         style="fill:none;stroke:#000000;stroke-width:0.83195472px;stroke-linecap:butt;stroke-linejoin:miter;stroke-opacity:1"
         d="m 65.413628,44.596594 c 0,0 -4.885096,2.943381 -5.147719,7.565588 -0.262623,4.622207 2.921825,9.718346 9.853463,9.879462 2.258582,0.0525 3.357703,-0.271999 4.471757,-1.091941 0.221125,-1.345187 0.894143,-3.80279 2.469865,-5.69369 2.142017,-2.570465 3.337403,-2.547046 4.263768,-3.093831 0.03344,-1.964969 -0.633043,-5.132936 -2.313874,-6.603641 -1.680806,0.157573 -4.300424,0.331643 -6.889625,0.052 -2.589201,-0.279645 -5.593905,-0.751289 -6.707635,-1.013945 z m 4.887734,3.795793 c 4.464602,0.262623 4.393736,3.919979 4.393761,4.497755 -0.105051,1.208073 -1.136675,3.952842 -4.445758,3.847791 -3.6809,-0.116857 -4.392446,-2.74263 -4.523754,-4.003782 -0.131307,-1.261152 0.793943,-4.236746 4.575751,-4.341764 z"
         id="path4797"
         inkscape:connector-curvature="0" />
    </g>
    <g
       id="g4072">
      <path
         sodipodi:nodetypes="cssscsszscssssc"
         inkscape:connector-curvature="0"
         id="path4748"
         d="M 80.42967,11.942854 C 70.019186,11.445176 58.21945,19.965269 56.882382,27.987691 55.545306,36.010114 59.110831,41.655517 73.075781,42.546899 87.04074,43.43828 96.845917,38.535687 97.440174,26.502053 98.034422,14.468428 89.194904,12.239979 83.475223,11.720007 c 0.891373,3.194107 2.283774,5.028567 2.228441,10.770843 -0.0688,7.140368 -3.413527,11.832077 -12.182188,11.290807 -6.016821,-0.371401 -6.477512,-4.543966 -6.536793,-6.536785 -0.05928,-1.992819 1.931325,-7.428165 5.793974,-7.428165 3.862649,0 5.051155,2.525573 3.714087,4.456897 -1.53686,-0.624257 -1.799323,-0.66285 -3.045545,-0.668525 -1.566965,-0.0071 -2.451304,1.931316 -2.451304,3.416954 0,1.48563 1.188505,3.34267 4.308335,3.34267 3.11983,0 7.476602,-0.88743 8.022423,-7.873853 0.37141,-4.75403 -1.857039,-8.319547 -2.896983,-10.547996 z"
         style="fill:none;stroke:#000000;stroke-width:0.83195472px;stroke-linecap:butt;stroke-linejoin:miter;stroke-opacity:1" />
    </g>
    <path
       sodipodi:nodetypes="ssscssscs"
       inkscape:connector-curvature="0"
       id="path4801"
       d="m 81.162406,70.969341 c 4.044431,0 6.823168,-2.719826 6.775739,-5.98786 -0.0297,-2.04893 -2.468676,-2.206053 -3.204033,-2.206053 -0.735348,0 -2.363625,0.315153 -2.363625,1.470705 0,-1.155552 1.628277,-1.470705 2.363625,-1.470705 0.735357,0 3.174332,0.157123 3.204033,2.206053 0.04742,3.268034 -2.731308,5.98786 -6.775739,5.98786 -4.044423,0 -5.147453,-1.838378 -6.355527,-5.199983 1.208074,3.361605 2.311104,5.199983 6.355527,5.199983 z"
       style="fill:none;stroke:#000000;stroke-width:0.83195472px;stroke-linecap:round;stroke-linejoin:round;stroke-opacity:1" />
    <path
       sodipodi:nodetypes="ssscssscs"
       inkscape:connector-curvature="0"
       id="path4803"
       d="m 81.109885,74.068323 c 6.303005,-0.105051 9.454516,-4.674737 9.454516,-8.666639 0,-3.991901 -2.206053,-5.88281 -5.410085,-5.88281 -3.204032,0 -4.779779,3.361605 -4.779779,4.044432 0,-0.682827 1.575747,-4.044432 4.779779,-4.044432 3.204032,0 5.410085,1.890909 5.410085,5.88281 0,3.991902 -3.151511,8.561588 -9.454516,8.666639 -6.303006,0.105051 -9.086834,-4.359584 -9.086834,-7.878761 0,3.519177 2.783828,7.983812 9.086834,7.878761 z"
       style="fill:none;stroke:#000000;stroke-width:0.83195472px;stroke-linecap:round;stroke-linejoin:round;stroke-opacity:1" />
    <g
       style="fill:none;stroke:#000000;stroke-opacity:1"
       id="g4994"
       transform="matrix(0.8319547,0,0,0.8319547,-324.33115,-281.50365)">
      <path
         id="path4775"
         d="m 456.46875,355.34375 c -5.80837,-0.0631 -10.49556,1.39308 -10.9375,5.8125 -0.44194,4.41942 4.09882,2.14959 3.59375,9.03125 -0.50508,6.88166 -3.00095,10.12247 -9.125,10.375 -6.12405,0.25254 -7.28125,-5.32852 -7.28125,-6.84375 0,-1.51522 1.50121,-8.30383 7.96875,-9.84375 1.32582,-0.31568 2.34248,-1.19781 2.46875,-3.28125 0.16059,-2.64979 -1.17659,-3.97236 -9.0625,-3.9375 -11.69642,-0.35715 -22.06365,4.7328 -23.03125,24.625 -0.44643,9.17785 2.60986,23.95089 10,23.59375 4.11783,-0.199 7.4241,1.85714 7.15625,7.75 -0.26786,5.89286 -1.20265,8.69194 -9.1875,11.625 -3.52412,1.29451 -4.21875,8.91071 -4.21875,10.875 0,1.96428 -0.1376,9.26755 12.71875,9.4375 11.50465,0.15208 17.1663,-2.1653 21.375,-7.03125 -0.0421,-1.34688 0.25105,-3.41091 0.6875,-5.71875 0.56731,-0.0796 1.10113,-0.16849 1.65625,-0.25 -0.49351,0.0614 -0.98066,0.13254 -1.5,0.1875 0,-0.47351 0.32324,-4.94757 4.5625,-5.09375 3.6618,-0.12627 6.78142,-4.73296 7.03125,-5.6875 0.15465,-0.5909 0.34359,-3.7191 3.46875,-3.6875 0.15025,0 0.31064,0.002 0.46875,0 0.14101,-0.22504 0.26636,-0.45959 0.40625,-0.6875 -2.56389,0.68671 -6.30484,2.65406 -9.375,2.53125 -3.34818,-0.13393 -3.31695,-2.53572 -3.40625,-6.0625 -3.5977,-0.31172 -4.20191,-1.16095 -4.4375,-3.28125 -0.26785,-2.41072 3.03572,-3.85268 3.125,-6.53125 l 0.125,-0.125 c -4.15739,-0.87492 -5.34375,-2.60597 -5.34375,-5.90625 0,-3.97321 7.46875,-13.70089 8.40625,-14.28125 0.063,0.0978 0.15321,0.18435 0.21875,0.28125 -0.10789,-0.18877 -0.21875,-0.34375 -0.21875,-0.34375 0,0 2.36661,-2.89058 3.375,-4.25 -0.071,-0.45723 -0.10941,-0.86668 -0.15625,-1.28125 -0.0156,-0.134 -0.0193,-0.27052 -0.0312,-0.40625 -0.0651,-0.65084 -0.125,-1.21403 -0.125,-1.5625 -10e-6,-1.12631 0.12787,-2.26041 0.375,-3.375 0.007,-0.0419 0.0237,-0.0831 0.0312,-0.125 0.17888,-0.99823 0.51196,-2.0054 0.96875,-3 0.11984,-0.26093 0.23782,-0.52163 0.375,-0.78125 0.0407,-0.0847 0.0829,-0.16561 0.125,-0.25 1.55225,-3.11461 4.02485,-6.00442 7.15625,-8.4375 -1.03992,-1.43249 -4.72555,-4.00075 -10.40625,-4.0625 z m 6.5625,34.625 c 3.33949,1.68846 7.3397,2.8166 11.75,3.25 0.0145,-0.0935 0.0173,-0.18754 0.0312,-0.28125 -5.01941,-0.44646 -8.87411,-1.58481 -11.78125,-2.96875 z M 454.875,413.1875 c 4.17478,0.40226 6.92196,1.82445 11.03125,3.09375 -3.76024,-1.27307 -7.16118,-2.86538 -11.03125,-3.09375 z"
         style="fill:none;stroke:#000000;stroke-width:1px;stroke-linecap:butt;stroke-linejoin:miter;stroke-opacity:1"
         inkscape:connector-curvature="0" />
      <path
         sodipodi:nodetypes="ccc"
         inkscape:connector-curvature="0"
         id="path4853"
         d="m 438.72188,360.84963 c -5.99778,0.12627 -14.45781,11.55362 -9.65959,18.94036 -4.79822,-7.38674 3.66181,-18.81409 9.65959,-18.94036 z"
         style="fill:none;stroke:#000000;stroke-width:1px;stroke-linecap:round;stroke-linejoin:round;stroke-opacity:1" />
      <path
         sodipodi:nodetypes="ccc"
         inkscape:connector-curvature="0"
         id="path4857"
         d="m 439.35322,356.93529 c -9.72271,1.26269 -18.11961,14.52094 -15.84676,21.33947 -2.27285,-6.81853 6.12405,-20.07678 15.84676,-21.33947 z"
         style="fill:none;stroke:#000000;stroke-width:1px;stroke-linecap:round;stroke-linejoin:round;stroke-opacity:1" />
      <path
         sodipodi:nodetypes="ccc"
         style="fill:none;stroke:#000000;stroke-width:1px;stroke-linecap:round;stroke-linejoin:round;stroke-opacity:1"
         d="m 432.21902,356.61962 c -6.69226,2.77792 -15.40483,15.72049 -12.37437,23.42291 -3.03046,-7.70242 5.68211,-20.64499 12.37437,-23.42291 z"
         id="path4863"
         inkscape:connector-curvature="0" />
      <path
         sodipodi:nodetypes="ccc"
         style="fill:none;stroke:#000000;stroke-width:1px;stroke-linecap:round;stroke-linejoin:round;stroke-opacity:1"
         d="m 425.04464,357.89789 c -4.28571,1.5625 -11.875,15.71429 -9.19642,22.27679 -2.67858,-6.5625 4.91071,-20.71429 9.19642,-22.27679 z"
         id="path4867"
         inkscape:connector-curvature="0" />
      <path
         sodipodi:nodetypes="ccc"
         style="fill:none;stroke:#000000;stroke-width:1px;stroke-linecap:round;stroke-linejoin:round;stroke-opacity:1"
         d="m 446.42857,359.72825 c 6.51786,5.13393 8.30357,13.25893 3.25893,21.5625 5.04464,-8.30357 3.25893,-16.42857 -3.25893,-21.5625 z"
         id="path4871"
         inkscape:connector-curvature="0" />
      <path
         sodipodi:nodetypes="ccc"
         style="fill:none;stroke:#000000;stroke-width:1px;stroke-linecap:round;stroke-linejoin:round;stroke-opacity:1"
         d="m 448.75,356.87111 c 5.89286,1.42857 9.73214,12.76786 6.20536,20.89286 3.52678,-8.125 -0.3125,-19.46429 -6.20536,-20.89286 z"
         id="path4875"
         inkscape:connector-curvature="0" />
      <path
         sodipodi:nodetypes="ccc"
         inkscape:connector-curvature="0"
         id="path4877"
         d="m 453.30596,355.45163 c 4.54568,2.30441 6.34502,10.41719 6.40815,11.80615 -0.0631,-1.38896 -1.86247,-9.50174 -6.40815,-11.80615 z"
         style="fill:none;stroke:#000000;stroke-width:1px;stroke-linecap:round;stroke-linejoin:round;stroke-opacity:1" />
      <path
         sodipodi:nodetypes="ccc"
         inkscape:connector-curvature="0"
         id="path4881"
         d="m 458.32589,355.5095 c 2.94643,2.03125 4.0625,7.29911 4.12947,8.01339 -0.067,-0.71428 -1.18304,-5.98214 -4.12947,-8.01339 z"
         style="fill:none;stroke:#000000;stroke-width:1px;stroke-linecap:round;stroke-linejoin:round;stroke-opacity:1" />
      <path
         sodipodi:nodetypes="ccc"
         style="fill:none;stroke:#000000;stroke-width:1px;stroke-linecap:round;stroke-linejoin:round;stroke-opacity:1"
         d="m 462.83482,356.69254 c 1.16072,1.07143 1.98661,3.97321 2.00893,4.46428 -0.0223,-0.49107 -0.84821,-3.39285 -2.00893,-4.46428 z"
         id="path4887"
         inkscape:connector-curvature="0" />
      <path
         sodipodi:nodetypes="ccc"
         inkscape:connector-curvature="0"
         id="path4915"
         d="m 418.75,383.58986 c -0.46875,3.30357 -5.58036,6.22768 -6.60714,7.76786 1.02678,-1.54018 6.13839,-4.46429 6.60714,-7.76786 z"
         style="fill:none;stroke:#000000;stroke-width:1px;stroke-linecap:round;stroke-linejoin:round;stroke-opacity:1" />
      <path
         sodipodi:nodetypes="ccc"
         style="fill:none;stroke:#000000;stroke-width:1px;stroke-linecap:round;stroke-linejoin:round;stroke-opacity:1"
         d="m 419.66518,390.42022 c -1.80804,0.95982 -4.48661,4.53125 -4.39732,6.85267 -0.0893,-2.32142 2.58928,-5.89285 4.39732,-6.85267 z"
         id="path4921"
         inkscape:connector-curvature="0" />
      <path
         sodipodi:nodetypes="ccc"
         inkscape:connector-curvature="0"
         id="path4923"
         d="m 421.47322,393.947 c -1.07143,1.47322 -3.39286,5.9375 -2.65626,10.22321 -0.7366,-4.28571 1.58483,-8.74999 2.65626,-10.22321 z"
         style="fill:none;stroke:#000000;stroke-width:1px;stroke-linecap:round;stroke-linejoin:round;stroke-opacity:1" />
      <path
         sodipodi:nodetypes="ccc"
         inkscape:connector-curvature="0"
         id="path4927"
         d="m 423.63839,398.52289 c -1.31696,2.72322 -0.80357,5.55804 -0.80357,6.11608 0,-0.55804 -0.51339,-3.39286 0.80357,-6.11608 z"
         style="fill:none;stroke:#000000;stroke-width:1px;stroke-linecap:round;stroke-linejoin:round;stroke-opacity:1" />
      <path
         sodipodi:nodetypes="ccc"
         style="fill:none;stroke:#000000;stroke-width:1px;stroke-linecap:round;stroke-linejoin:round;stroke-opacity:1"
         d="m 427.25447,400.68807 c -1.62947,1.20536 -2.54465,3.50447 -2.00893,4.59822 -0.53572,-1.09375 0.37946,-3.39286 2.00893,-4.59822 z"
         id="path4933"
         inkscape:connector-curvature="0" />
      <path
         sodipodi:nodetypes="ccc"
         inkscape:connector-curvature="0"
         id="path4935"
         d="m 429.86607,403.72379 c -1.58482,0.24553 -2.76785,2.00893 -2.58928,3.45982 -0.17857,-1.45089 1.00446,-3.21429 2.58928,-3.45982 z"
         style="fill:none;stroke:#000000;stroke-width:1px;stroke-linecap:round;stroke-linejoin:round;stroke-opacity:1" />
      <path
         sodipodi:nodetypes="ccc"
         inkscape:connector-curvature="0"
         id="path4939"
         d="m 431.51786,408.29968 c -1.25,0.40179 -2.96875,2.61161 -3.21428,3.52678 0.24553,-0.91517 1.96428,-3.12499 3.21428,-3.52678 z"
         style="fill:none;stroke:#000000;stroke-width:1px;stroke-linecap:round;stroke-linejoin:round;stroke-opacity:1" />
      <path
         sodipodi:nodetypes="ccc"
         inkscape:connector-curvature="0"
         id="path4943"
         d="m 433.01339,412.45147 c -2.27678,0.0446 -4.46428,2.54464 -4.82142,3.08035 0.35714,-0.53571 2.54464,-3.03575 4.82142,-3.08035 z"
         style="fill:none;stroke:#000000;stroke-width:1px;stroke-linecap:round;stroke-linejoin:round;stroke-opacity:1" />
      <path
         style="fill:none;stroke:#000000;stroke-width:1px;stroke-linecap:round;stroke-linejoin:round;stroke-opacity:1"
         d="m 431.58482,421.55861 c -1.9866,-1.80804 -5.24553,-1.27233 -7.38839,0.20094 2.14286,-1.47327 5.40179,-2.00898 7.38839,-0.20094 z"
         id="path4949"
         inkscape:connector-curvature="0"
         sodipodi:nodetypes="ccc" />
      <path
         sodipodi:nodetypes="ccc"
         inkscape:connector-curvature="0"
         id="path4951"
         d="m 426.12654,425.37312 c -1.95717,-1.16799 -6.40816,-0.85231 -8.39689,0.0631 1.98873,-0.91541 6.43972,-1.23109 8.39689,-0.0631 z"
         style="fill:none;stroke:#000000;stroke-width:1px;stroke-linecap:round;stroke-linejoin:round;stroke-opacity:1" />
      <path
         sodipodi:nodetypes="ccc"
         inkscape:connector-curvature="0"
         id="path4955"
         d="m 421.18304,429.61664 c -3.21429,-0.17857 -5.95983,3.41518 -6.29465,4.04018 0.33482,-0.625 3.08036,-4.21875 6.29465,-4.04018 z"
         style="fill:none;stroke:#000000;stroke-width:1px;stroke-linecap:round;stroke-linejoin:round;stroke-opacity:1" />
      <path
         sodipodi:nodetypes="ccc"
         inkscape:connector-curvature="0"
         id="path4959"
         d="m 421.65179,433.12111 c -2.3884,1.00446 -5.71429,5.66964 -4.64286,7.96875 -1.07143,-2.29911 2.25446,-6.96429 4.64286,-7.96875 z"
         style="fill:none;stroke:#000000;stroke-width:1px;stroke-linecap:round;stroke-linejoin:round;stroke-opacity:1" />
      <path
         sodipodi:nodetypes="ccc"
         style="fill:none;stroke:#000000;stroke-width:1px;stroke-linecap:round;stroke-linejoin:round;stroke-opacity:1"
         d="m 425.84822,436.17914 c -3.25893,1.49554 -4.17411,6.58483 -2.99108,7.8125 -1.18303,-1.22767 -0.26785,-6.31696 2.99108,-7.8125 z"
         id="path4965"
         inkscape:connector-curvature="0" />
      <path
         sodipodi:nodetypes="ccc"
         inkscape:connector-curvature="0"
         id="path4967"
         d="m 431.83036,435.5095 c -0.0893,3.72768 -2.25447,5.55803 -2.00893,8.95089 -0.24554,-3.39286 1.91963,-5.22321 2.00893,-8.95089 z"
         style="fill:none;stroke:#000000;stroke-width:1px;stroke-linecap:round;stroke-linejoin:round;stroke-opacity:1" />
      <path
         sodipodi:nodetypes="ccc"
         inkscape:connector-curvature="0"
         id="path4971"
         d="m 438.88393,435.33093 c -0.46875,2.36608 -0.35715,7.67857 -0.78125,8.25892 0.4241,-0.58035 0.3125,-5.89284 0.78125,-8.25892 z"
         style="fill:none;stroke:#000000;stroke-width:1px;stroke-linecap:round;stroke-linejoin:round;stroke-opacity:1" />
      <path
         sodipodi:nodetypes="ccc"
         inkscape:connector-curvature="0"
         id="path4975"
         d="m 444.375,431.08986 c 1.49554,1.6741 1.96429,8.08036 1.89732,8.86161 0.067,-0.78125 -0.40178,-7.18751 -1.89732,-8.86161 z"
         style="fill:none;stroke:#000000;stroke-width:1px;stroke-linecap:round;stroke-linejoin:round;stroke-opacity:1" />
    </g>
    <g
       style="fill:none;stroke:#000000;stroke-opacity:1"
       id="g4979"
       transform="matrix(0.8319547,0,0,0.8319547,-324.33115,-281.50365)">
      <path
         sodipodi:nodetypes="csccc"
         inkscape:connector-curvature="0"
         id="path4889"
         d="m 434.42873,391.88025 c 0.0316,1.42053 1.04172,3.06203 3.5671,3.25143 2.52538,0.1894 3.85121,-2.62008 3.91434,-3.94591 0.0631,-1.32582 -0.31567,-3.28299 -3.40927,-3.63024 -3.78806,4e-5 -4.10374,2.9042 -4.07217,4.32472 z"
         style="fill:none;stroke:#000000;stroke-width:1px;stroke-linecap:butt;stroke-linejoin:miter;stroke-opacity:1" />
      <path
         inkscape:connector-curvature="0"
         id="path4891"
         d="m 438.65874,397.9096 c -1.67306,-0.0316 -2.30441,1.32583 -2.30441,2.14657 0,0.82075 0.41038,1.6415 2.20971,1.60994 1.79934,-0.0316 2.08344,-1.04172 2.11501,-1.79934 0.0316,-0.75761 -0.37881,-1.79933 -2.02031,-1.95717 z"
         style="fill:none;stroke:#000000;stroke-width:1px;stroke-linecap:butt;stroke-linejoin:miter;stroke-opacity:1" />
      <path
         inkscape:connector-curvature="0"
         id="path4893"
         d="m 438.92707,404.68078 c -0.41038,0 -0.50508,0.29989 -0.50508,0.47351 0,0.17362 0.17362,0.31567 0.41037,0.31567 0.23676,0 0.34724,-0.20519 0.34724,-0.44194 0,-0.23676 0,-0.34724 -0.25253,-0.34724 z"
         style="fill:none;stroke:#000000;stroke-width:1px;stroke-linecap:butt;stroke-linejoin:miter;stroke-opacity:1" />
      <path
         inkscape:connector-curvature="0"
         id="path4895"
         d="m 438.60491,409.77847 c -0.23995,-0.006 -0.43527,0.3125 -0.43527,0.50224 0,0.18973 0.15067,0.44642 0.37947,0.45759 0.22879,0.0112 0.3683,-0.2846 0.39062,-0.46317 0.0223,-0.17858 -0.0614,-0.4855 -0.33482,-0.49666 z"
         style="fill:none;stroke:#000000;stroke-width:1px;stroke-linecap:butt;stroke-linejoin:miter;stroke-opacity:1" />
      <path
         inkscape:connector-curvature="0"
         id="path4897"
         d="m 438.59375,413.74053 c -0.25669,0.0112 -0.49107,0.19531 -0.53571,0.45201 -0.0446,0.25669 0.0558,0.46317 0.50781,0.20647 0.45201,-0.2567 0.54688,-0.63616 0.0279,-0.65848 z"
         style="fill:none;stroke:#000000;stroke-width:1px;stroke-linecap:butt;stroke-linejoin:miter;stroke-opacity:1" />
      <path
         inkscape:connector-curvature="0"
         id="path4899"
         d="m 438.20871,417.06084 c -0.34598,0.0223 -0.49107,0.12835 -0.50223,0.29576 -0.0112,0.16741 0.16183,0.21205 0.42968,0.21763 0.26786,0.006 0.50782,-0.0558 0.50782,-0.23995 0,-0.18415 -0.17858,-0.26228 -0.43527,-0.27344 z"
         style="fill:none;stroke:#000000;stroke-width:1px;stroke-linecap:butt;stroke-linejoin:miter;stroke-opacity:1" />
      <path
         inkscape:connector-curvature="0"
         id="path4901"
         d="m 437.80134,420.5095 c -0.27902,0.006 -0.3962,0.26228 -0.40178,0.41295 -0.006,0.15067 0.0502,0.38504 0.3404,0.38504 0.29018,0 0.44643,-0.25111 0.44643,-0.38504 0,-0.13393 -0.0279,-0.39621 -0.38505,-0.41295 z"
         style="fill:none;stroke:#000000;stroke-width:1px;stroke-linecap:butt;stroke-linejoin:miter;stroke-opacity:1" />
      <path
         inkscape:connector-curvature="0"
         id="path4903"
         d="m 436.37835,424.14231 c -0.27344,0 -0.38504,0.24554 -0.39062,0.40737 -0.006,0.16183 0.14508,0.51897 0.35156,0.51897 0.20647,0 0.38504,-0.33482 0.41852,-0.51897 0.0335,-0.18415 -0.11718,-0.39063 -0.37946,-0.40737 z"
         style="fill:none;stroke:#000000;stroke-width:1px;stroke-linecap:butt;stroke-linejoin:miter;stroke-opacity:1" />
      <path
         inkscape:connector-curvature="0"
         id="path4905"
         d="m 434.44197,426.54187 c -0.19532,0 -0.32924,0.17857 -0.32924,0.3404 0,0.16183 0.15066,0.27902 0.33482,0.27902 0.18415,0 0.27901,-0.15625 0.28459,-0.32366 0.006,-0.16741 -0.0893,-0.25112 -0.29017,-0.29576 z"
         style="fill:none;stroke:#000000;stroke-width:1px;stroke-linecap:butt;stroke-linejoin:miter;stroke-opacity:1" />
      <path
         inkscape:connector-curvature="0"
         id="path4907"
         d="m 432.4442,428.36664 c -0.29576,0 -0.42411,0.17858 -0.42411,0.31808 0,0.13951 0.0558,0.46317 0.35156,0.43527 0.29576,-0.0279 0.44085,-0.18415 0.44085,-0.40178 0,-0.21764 -0.11161,-0.32924 -0.3683,-0.35157 z"
         style="fill:none;stroke:#000000;stroke-width:1px;stroke-linecap:butt;stroke-linejoin:miter;stroke-opacity:1" />
      <path
         inkscape:connector-curvature="0"
         id="path4909"
         d="m 429.2913,429.91798 c -0.27344,0.006 -0.39063,0.2288 -0.39063,0.36831 0,0.13951 0.16741,0.3683 0.37389,0.3683 0.20647,0 0.35156,-0.14509 0.35156,-0.37388 0,-0.2288 -0.11161,-0.35715 -0.33482,-0.36273 z"
         style="fill:none;stroke:#000000;stroke-width:1px;stroke-linecap:butt;stroke-linejoin:miter;stroke-opacity:1" />
      <path
         inkscape:connector-curvature="0"
         id="path4911"
         d="m 426.68527,430.98941 c -0.17299,0.0335 -0.18415,0.13393 -0.18973,0.29576 -0.006,0.16183 0.0614,0.29576 0.20647,0.29576 0.14509,0 0.23996,-0.20647 0.23996,-0.31808 0,-0.11161 -0.0726,-0.26228 -0.2567,-0.27344 z"
         style="fill:none;stroke:#000000;stroke-width:1px;stroke-linecap:butt;stroke-linejoin:miter;stroke-opacity:1" />
      <path
         inkscape:connector-curvature="0"
         id="path4913"
         d="m 424.32478,431.03964 c -0.0893,0 -0.20089,0.15066 -0.20647,0.35156 -0.006,0.20089 0.16183,0.26227 0.24553,0.25669 0.0837,-0.006 0.32924,-0.22879 -0.0391,-0.60825 z"
         style="fill:none;stroke:#000000;stroke-width:1px;stroke-linecap:butt;stroke-linejoin:miter;stroke-opacity:1" />
    </g>
    <g
       style="fill:none;stroke:#000000;stroke-opacity:1"
       id="g5028"
       transform="matrix(0.8319547,0,0,0.8319547,-324.33115,-281.50365)">
      <path
         sodipodi:nodetypes="csccssscc"
         inkscape:connector-curvature="0"
         id="path5026"
         d="m 406.5625,372.09432 c -3.75,0.26786 -4.62433,5.3121 -4.59821,6.91965 0.0437,2.68814 2.90178,7.36607 9.0625,5.71428 -0.3125,-10.31249 3.08035,-19.01786 5.13392,-21.02679 -0.31249,-2.85714 -3.92534,-4.16885 -7.09821,-4.10714 -3.1703,0.0617 -16.07142,1.875 -16.51786,20.53572 -0.312,13.04122 8.84575,16.92819 14.19643,16.60714 2.23214,-0.13393 4.6875,-0.22321 6.02679,-1.11607 -1.11608,-4.28572 -1.51786,-7.76786 -1.91964,-10.84822"
         style="fill:none;stroke:#000000;stroke-width:1px;stroke-linecap:round;stroke-linejoin:round;stroke-opacity:1" />
      <path
         sodipodi:nodetypes="sscsscs"
         inkscape:connector-curvature="0"
         id="path5022"
         d="m 397.63393,380.35325 c 0.625,-9.33036 6.20536,-11.47321 9.01786,-11.69643 2.8125,-0.22321 4.375,2.58929 2.63393,5.22322 1.74107,-2.63393 0.17857,-5.44643 -2.63393,-5.22322 -2.8125,0.22322 -8.39286,2.36607 -9.01786,11.69643 -0.625,9.33036 10.17857,10.3125 13.66071,8.25893 -3.48214,2.05357 -14.28571,1.07143 -13.66071,-8.25893 z"
         style="fill:none;stroke:#000000;stroke-width:1px;stroke-linecap:round;stroke-linejoin:round;stroke-opacity:1" />
    </g>
    <g
       style="fill:none;stroke:#000000;stroke-opacity:1"
       id="g5038"
       transform="matrix(0.8319547,0,0,0.8319547,-324.33115,-281.50365)">
      <path
         sodipodi:nodetypes="csscscsssc"
         inkscape:connector-curvature="0"
         id="path5036"
         d="m 410.0588,429.1612 c -4.98763,3.40926 -7.38674,-0.88389 -7.1342,-2.96733 0.25254,-2.08344 2.27284,-6.43972 9.47018,-6.50285 7.19733,-0.0631 7.07107,4.23001 7.07107,4.23001 0,0 -5.05077,1.76777 -4.73509,10.03839 0.31567,8.27062 0.44194,4.41942 0.44194,4.41942 0,0 -4.48255,5.17703 -10.66974,4.48255 -6.18718,-0.69448 -12.12183,-6.18719 -11.86929,-15.40483 0.25254,-9.21764 5.85815,-19.59632 20.39245,-19.69797 9.02825,-0.0631 6.06092,7.32361 4.54569,13.00571"
         style="fill:none;stroke:#000000;stroke-width:1px;stroke-linecap:round;stroke-linejoin:round;stroke-opacity:1" />
      <path
         style="fill:none;stroke:#000000;stroke-width:1px;stroke-linecap:round;stroke-linejoin:round;stroke-opacity:1"
         d="m 398.56831,426.25701 c 0.20658,-7.32314 4.41942,-11.99557 13.8896,-12.2481 -9.47018,0.25253 -13.68302,4.92496 -13.8896,12.2481 -0.17665,6.26234 5.87152,8.83884 10.73288,6.37658 -4.86136,2.46226 -10.90953,-0.11424 -10.73288,-6.37658 z"
         id="path5034"
         inkscape:connector-curvature="0"
         sodipodi:nodetypes="scscs" />
    </g>
    <g
       id="g4022">
      <path
         sodipodi:nodetypes="cscscccc"
         inkscape:connector-curvature="0"
         id="path5042"
         d="m 11.050588,48.340864 c -5.3482786,2.042748 -9.8395694,8.296935 -9.3594899,13.185001 0.408548,4.159765 1.8570393,4.679745 2.377011,4.939731 1.0399434,-1.559915 3.3530853,-8.302966 15.1163259,-8.80238 0.854276,-0.03627 2.451288,0.111432 3.491239,0.705672 -0.334271,0.631396 1.151359,-2.488434 1.29993,-3.454092 -2.896983,-1.337076 -4.494045,-5.756828 -4.976878,-7.16818 -2.228449,0.668525 -4.791169,1.485629 -7.948138,0.594248 z"
         style="fill:none;stroke:#000000;stroke-width:0.83195472px;stroke-linecap:round;stroke-linejoin:round;stroke-opacity:1" />
    </g>
    <g
       style="fill:none;stroke:#000000;stroke-opacity:1"
       id="g5054"
       transform="matrix(0.8319547,0,0,0.8319547,-324.33115,-281.50365)">
      <path
         sodipodi:nodetypes="ccc"
         inkscape:connector-curvature="0"
         id="path5044"
         d="m 396.11607,409.90682 c 3.25893,-2.67857 7.05357,-5.98214 19.01786,-5.58036 -11.96429,-0.40178 -15.75893,2.90179 -19.01786,5.58036 z"
         style="fill:none;stroke:#000000;stroke-width:1px;stroke-linecap:round;stroke-linejoin:round;stroke-opacity:1" />
      <path
         sodipodi:nodetypes="cccc"
         inkscape:connector-curvature="0"
         id="path5048"
         d="m 402.60236,405.83396 c -0.625,-2.1875 0.87978,-3.82892 2.57621,-3.73964 1.34919,0.0893 0.96366,2.2822 0.82973,2.81792 -0.85998,0.20426 -1.88808,0.34136 -3.40594,0.92172 z"
         style="fill:none;stroke:#000000;stroke-width:1px;stroke-linecap:round;stroke-linejoin:round;stroke-opacity:1" />
      <path
         sodipodi:nodetypes="cscc"
         inkscape:connector-curvature="0"
         id="path5050"
         d="m 406.16024,404.8544 c -0.12627,-1.26269 0.47359,-3.15467 2.52538,-3.17251 1.81513,-0.0158 1.65117,1.62219 1.67307,2.57273 -0.97018,0.18882 -3.53553,0.37881 -4.19845,0.59978 z"
         style="fill:none;stroke:#000000;stroke-width:1px;stroke-linecap:butt;stroke-linejoin:miter;stroke-opacity:1" />
      <path
         sodipodi:nodetypes="csccc"
         inkscape:connector-curvature="0"
         id="path5052"
         d="m 410.46917,404.33354 c 0,-0.99437 -0.23675,-3.04624 2.11501,-3.04624 2.35176,0 1.81512,2.41489 1.43631,2.9831 -0.59978,0.0789 -2.66743,0.0631 -3.55132,0.0631 z"
         style="fill:none;stroke:#000000;stroke-width:1px;stroke-linecap:round;stroke-linejoin:round;stroke-opacity:1" />
    </g>
  </g>
</svg>
