<?xml version="1.0" encoding="UTF-8" standalone="no"?>
<!-- Created with Inkscape (http://www.inkscape.org/) -->

<svg
   xmlns:dc="http://purl.org/dc/elements/1.1/"
   xmlns:cc="http://creativecommons.org/ns#"
   xmlns:rdf="http://www.w3.org/1999/02/22-rdf-syntax-ns#"
   xmlns:svg="http://www.w3.org/2000/svg"
   xmlns="http://www.w3.org/2000/svg"
   xmlns:sodipodi="http://sodipodi.sourceforge.net/DTD/sodipodi-0.dtd"
   xmlns:inkscape="http://www.inkscape.org/namespaces/inkscape"
   width="100"
   height="100"
   id="svg4048"
   version="1.1"
   inkscape:version="0.48.5 r10040"
   sodipodi:docname="glyph.svg">
  <defs
     id="defs4050" />
  <sodipodi:namedview
     id="base"
     pagecolor="#ffffff"
     bordercolor="#666666"
     borderopacity="1.0"
     inkscape:pageopacity="0.0"
     inkscape:pageshadow="2"
     inkscape:zoom="5.6"
     inkscape:cx="49.611536"
     inkscape:cy="47.163246"
     inkscape:document-units="px"
     inkscape:current-layer="layer2"
     showgrid="false"
     inkscape:window-width="1411"
     inkscape:window-height="834"
     inkscape:window-x="20"
     inkscape:window-y="20"
     inkscape:window-maximized="0" />
  <metadata
     id="metadata4053">
    <rdf:RDF>
      <cc:Work
         rdf:about="">
        <dc:format>image/svg+xml</dc:format>
        <dc:type
           rdf:resource="http://purl.org/dc/dcmitype/StillImage" />
        <dc:title />
      </cc:Work>
    </rdf:RDF>
  </metadata>
  <g
     inkscape:groupmode="layer"
     id="layer2"
     inkscape:label="Layer">
    <g
       id="g3606">
      <path
         sodipodi:nodetypes="cssssc"
         inkscape:connector-curvature="0"
         id="path3839-6"
         d="m 11.288602,25.93826 c 0,0 -5.7613969,6.4173 4.802672,7.0108 4.913089,0.27602 5.575523,-8.11486 5.465116,-11.15104 -0.110407,-3.03617 -6.237957,-8.55649 -13.9111983,-0.60723 -7.67324125,7.94925 0.777362,20.02615 10.5438013,19.70753 1.711289,-0.0559 0.828049,-9.05332 0.828049,-9.05332"
         style="fill:none;stroke:#000000;stroke-width:0.87437367px;stroke-linecap:round;stroke-linejoin:round;stroke-opacity:1" />
    </g>
    <g
       id="g3603">
      <path
         sodipodi:nodetypes="cszssssc"
         inkscape:connector-curvature="0"
         id="path3847-5"
         d="m 18.131416,50.2112 c 0,0 -8.4267944,-1.4102 -14.3647099,5.5038 -2.84951397,3.318 -0.1386057,4.3821 0.6245564,4.3719 0.7631621,-0.01 3.2008285,-3.6302 5.2306258,-4.0205 2.0297977,-0.3904 8.0411167,0.4684 9.4853987,-0.9369 1.444273,-1.4052 0.70262,-8.97791 -0.312283,-9.60246 C 17.78011,44.90248 12.792988,44.29194 8.2166474,47.32263 2.3224243,51.2261 3.0250536,56.6909 3.0250536,56.6909"
         style="fill:none;stroke:#000000;stroke-width:0.87437367px;stroke-linecap:round;stroke-linejoin:round;stroke-opacity:1" />
    </g>
    <g
       id="g3609">
      <path
         sodipodi:nodetypes="csssssc"
         inkscape:connector-curvature="0"
         id="path3849-2"
         d="m 8.2166474,81.4388 c 0,0 -2.8885547,-4.1767 0.8587574,-6.2455 3.7473212,-2.0688 7.0652542,-2.3421 8.5485682,-0.5855 1.483314,1.7565 1.366209,14.5598 -5.074489,14.677 C 6.1087772,89.4019 0.99525622,86.3962 1.229466,78.7845 1.463667,71.1727 4.4621917,65.0338 12.939822,65.0833 c 6.674907,0.039 3.435047,8.6657 3.435047,8.6657"
         style="fill:none;stroke:#000000;stroke-width:0.87437367px;stroke-linecap:round;stroke-linejoin:round;stroke-opacity:1" />
    </g>
    <g
       id="g3585">
      <path
         sodipodi:nodetypes="cssssssscsssccsscssscsc"
         inkscape:connector-curvature="0"
         id="path3851-7"
         d="m 56.5,51.4421 c 0,0 10.15739,-7.3972 18.327459,-6.95558 8.170069,0.44163 10.81087,11.81358 10.930222,21.63968 C 85.923296,79.7614 79.464525,92.1821 72.177704,92.0717 63.015029,91.9328 59.260162,90.526 54.291874,90.4156 49.323587,90.3052 38.724578,93.5069 34.749946,93.0653 30.775323,92.6237 23.598909,91.63 23.598909,85.1161 c 0,-6.514 3.864225,-7.2869 6.845192,-7.1764 2.980976,0.1104 5.465116,-0.9109 5.465116,-0.9109 0,0 1.462888,4.1954 6.872796,4.3058 5.409907,0.1105 5.216697,-3.4226 5.2995,-3.7262 0.0828,-0.3036 -0.607235,-2.1805 -3.284585,-2.1805 -2.67735,0 -3.339793,-2.7602 -3.339793,-2.7602 0,0 3.334879,-5.0471 2.983564,-11.683 2.188033,-0.4531 5.210542,0.938 7.924012,-2.4982 3.164262,-4.007 3.122765,-7.7288 -0.156137,-10.0709 -3.278901,-2.34208 -10.031882,-1.99077 -12.686227,2.1859 -4.255235,1.9686 -10.109946,-0.3903 -10.266082,-2.342 -0.156137,-1.95178 5.191593,-10.61744 10.617397,-12.02268 5.425795,-1.40525 22.64349,-3.28776 27.059741,-3.06695 4.416252,0.22082 16.560953,-0.27601 17.554609,3.3122 -2.208126,0.82804 -7.673242,2.42894 -7.838848,4.69227 -0.325311,4.44591 1.21447,4.02983 1.21447,4.02983"
         style="fill:none;stroke:#000000;stroke-width:0.87437367px;stroke-linecap:round;stroke-linejoin:round;stroke-opacity:1" />
    </g>
    <g
       id="g3594">
      <path
         sodipodi:nodetypes="cscsssc"
         inkscape:connector-curvature="0"
         id="path3853-6"
         d="m 25.743153,63.4049 c 0,0 -2.845623,3.2713 0.390347,4.8402 2.576272,1.2491 5.152553,-4.6451 5.308699,-7.4946 -0.07808,-1.6004 -0.975862,-3.3179 -4.488974,-3.2008 -3.513111,0.1171 -4.488973,4.2157 -4.64511,7.1433 -0.156137,2.9276 1.327177,4.567 2.732418,4.3719 1.405241,-0.1952 1.366209,-0.6636 1.366209,-0.6636"
         style="fill:none;stroke:#000000;stroke-width:0.87437367px;stroke-linecap:round;stroke-linejoin:round;stroke-opacity:1" />
    </g>
    <g
       id="g3591">
      <path
         sodipodi:nodetypes="cssssscsc"
         inkscape:connector-curvature="0"
         id="path3855-3"
         d="m 25.420614,69.1071 c 0,0 -1.269678,6.514 0.552028,7.7285 1.821705,1.2145 8.170069,0.9936 9.605353,0.276 1.435285,-0.7176 6.348364,-3.0914 7.949264,-8.9981 1.600891,-5.9068 0.717633,-7.5076 0,-8.0597 -0.652816,-0.5021 -2.539549,-1.7537 -6.458771,-1.8217 -3.094601,-0.054 -5.741138,1.3801 -5.741138,1.3801 0,0 0.441628,2.5945 -1.380077,5.9619 -1.712976,3.1665 -4.526659,3.533 -4.526659,3.533 z"
         style="fill:none;stroke:#000000;stroke-width:0.87437367px;stroke-linecap:butt;stroke-linejoin:miter;stroke-opacity:1" />
    </g>
    <g
       id="g3597">
      <path
         sodipodi:nodetypes="cscscssssscc"
         inkscape:connector-curvature="0"
         id="path3857-8"
         d="m 86.806545,45.53539 c 0,0 3.036175,2.53931 0.110407,4.91311 -2.925768,2.3737 -3.64341,0.9384 -3.64341,0.9384 0,0 -0.661219,-1.8847 -2.594547,-4.14021 -1.656099,-1.93212 -3.698618,-2.48415 -3.698618,-2.48415 0,0 -0.44162,-1.7113 -0.44162,-3.533 0,-1.8217 8.55649,-5.90674 13.745592,-5.74113 5.189093,0.16561 7.250123,2.7069 7.397219,5.1339 0.110407,1.82169 -0.607235,2.04011 -0.607235,3.69861 0,1.43528 0.717642,2.48414 0.662443,3.69858 -0.112803,2.4816 -0.441629,11.7031 -12.475923,10.5438 -0.331221,-2.9809 -0.772841,-4.4162 -1.821705,-6.8452"
         style="fill:none;stroke:#000000;stroke-width:0.87437367px;stroke-linecap:butt;stroke-linejoin:miter;stroke-opacity:1" />
    </g>
    <g
       id="g3580">
      <path
         sodipodi:nodetypes="ccscc"
         inkscape:connector-curvature="0"
         id="path3859-9"
         d="m 85.114693,58.4865 c 3.35443,0.2437 6.011319,0.4684 9.368284,-1.7956 3.044701,1.9517 4.293805,13.3498 4.293805,17.4875 0,4.1377 0.624548,19.1269 -23.733003,17.3313 11.710364,-6.0894 11.088353,-26.8653 10.070914,-33.0232 z"
         style="fill:none;stroke:#000000;stroke-width:0.87437367px;stroke-linecap:butt;stroke-linejoin:miter;stroke-opacity:1" />
      <path
         sodipodi:nodetypes="cccscsscc"
         inkscape:connector-curvature="0"
         id="path3861-2"
         d="m 29.60757,49.1182 c -1.63945,1.4053 -3.669239,4.6061 -3.356965,8.3534 1.717515,0.2342 4.371868,0 5.074489,2.1859 2.322188,-0.9423 3.044692,-1.7565 7.41656,-1.2881 4.371869,0.4684 4.648034,1.488064 5.401701,2.418464 5.661503,0.662952 9.475829,-1.389135 10.368258,-7.141664 0.879074,-5.666443 -5.462204,-6.599622 -7.182359,-6.71392 -2.703881,-0.179662 -7.490237,1.922611 -7.728834,3.66922 -3.356974,1.7566 -9.056019,0.039 -9.99285,-1.4833 z"
         style="fill:none;stroke:#000000;stroke-width:0.87437367px;stroke-linecap:butt;stroke-linejoin:miter;stroke-opacity:1" />
      <path
         sodipodi:nodetypes="cccssc"
         inkscape:connector-curvature="0"
         id="path3863-2"
         d="m 41.396008,72.617 c -1.249026,1.6426 -4.059595,3.7083 -5.347731,4.3328 0.507443,2.6934 4.762206,4.489 6.518762,4.45 1.756556,-0.039 5.464836,-0.8588 5.464836,-3.2789 0,-2.4202 -2.263999,-2.6544 -3.239861,-2.7715 -1.821556,-0.2186 -3.04477,-1.2132 -3.396006,-2.7324 z"
         style="fill:none;stroke:#000000;stroke-width:0.87437367px;stroke-linecap:butt;stroke-linejoin:miter;stroke-opacity:1" />
    </g>
    <g
       id="g3562">
      <path
         inkscape:connector-curvature="0"
         id="path3867-2"
         d="m 60.529831,58.3977 c -3.036175,0 -3.036175,2.5946 -3.036175,3.4778 0,0.8833 0.607235,2.5946 3.25699,2.5946 2.649754,0 3.036175,-1.7665 3.091374,-3.0914 0.05517,-1.3249 -1.048855,-2.981 -3.312189,-2.981 z"
         style="fill:none;stroke:#000000;stroke-width:0.87437367px;stroke-linecap:butt;stroke-linejoin:miter;stroke-opacity:1" />
      <path
         sodipodi:nodetypes="csssc"
         inkscape:connector-curvature="0"
         id="path3869-9"
         d="m 50.924478,63.2004 c -2.318533,0.1656 -2.760162,1.7665 -2.704954,2.705 0.05596,0.9513 0.772841,2.0425 2.097719,2.0425 1.656098,0 2.704962,-1.0489 2.870569,-2.3738 0.165606,-1.3248 -0.552036,-2.3737 -2.263334,-2.3737 z"
         style="fill:none;stroke:#000000;stroke-width:0.87437367px;stroke-linecap:butt;stroke-linejoin:miter;stroke-opacity:1" />
      <path
         inkscape:connector-curvature="0"
         id="path3871-4"
         d="m 72.840139,52.1046 c -3.036176,0.055 -3.146583,2.1529 -3.146583,3.257 0,1.104 0.717642,2.9257 3.146583,2.9257 2.42894,0 3.091383,-1.5457 3.091383,-3.0362 0,-1.4904 -0.662443,-3.1465 -3.091383,-3.1465 z"
         style="fill:none;stroke:#000000;stroke-width:0.87437367px;stroke-linecap:butt;stroke-linejoin:miter;stroke-opacity:1" />
      <path
         inkscape:connector-curvature="0"
         id="path3873-8"
         d="m 76.925178,64.9117 c -2.760162,0 -3.588211,2.0425 -3.698619,3.4226 -0.110398,1.3801 0.938457,3.4226 2.925777,3.257 1.987312,-0.1656 3.809017,-2.3185 3.919424,-3.7538 0.110407,-1.4353 -1.435284,-2.9258 -3.146582,-2.9258 z"
         style="fill:none;stroke:#000000;stroke-width:0.87437367px;stroke-linecap:butt;stroke-linejoin:miter;stroke-opacity:1" />
      <path
         inkscape:connector-curvature="0"
         id="path3875-8"
         d="m 64.780477,68.2791 c -2.263325,0 -3.69861,2.3737 -3.809017,3.4226 -0.110407,1.0488 0.552027,3.0914 2.87056,2.8706 2.318533,-0.2209 3.477804,-1.4353 3.533003,-3.2018 0.05517,-1.7665 -0.44162,-3.0914 -2.594546,-3.0914 z"
         style="fill:none;stroke:#000000;stroke-width:0.87437367px;stroke-linecap:butt;stroke-linejoin:miter;stroke-opacity:1" />
      <path
         inkscape:connector-curvature="0"
         id="path3877-1"
         d="m 74.772251,76.5044 c -1.766497,-0.055 -3.201782,2.0977 -3.146582,4.5266 0.05517,2.429 1.324877,3.257 2.760161,3.2018 1.435285,-0.055 3.422596,-1.2697 3.477804,-3.5882 0.05517,-2.3185 -1.766506,-4.1402 -3.091383,-4.1402 z"
         style="fill:none;stroke:#000000;stroke-width:0.87437367px;stroke-linecap:butt;stroke-linejoin:miter;stroke-opacity:1" />
    </g>
    <g
       id="g3570">
      <path
         sodipodi:nodetypes="csscsc"
         inkscape:connector-curvature="0"
         id="path3879-7"
         d="m 29.008817,91.906 c 0,0 -1.242074,-5.7135 5.023495,-5.8515 5.162233,-0.1137 4.968279,2.9258 4.968279,3.809 0,0.8833 -0.717642,2.981 -0.717642,2.981 0,0 -2.732549,0.4416 -4.692265,0.055 -1.445183,-0.285 -4.581867,-0.9937 -4.581867,-0.9937 z"
         style="fill:none;stroke:#000000;stroke-width:0.87437367px;stroke-linecap:butt;stroke-linejoin:miter;stroke-opacity:1" />
      <path
         sodipodi:nodetypes="cssscsc"
         inkscape:connector-curvature="0"
         id="path3881-3"
         d="m 43.803272,91.8785 c 0,0 -1.076467,-1.3801 -0.910852,-3.3122 0.165606,-1.9321 2.180522,-3.6987 4.554263,-3.5882 2.373732,0.1104 3.809016,1.1868 3.891819,3.0085 0.0828,1.8217 -0.0828,2.5946 -0.0828,2.5946 0,0 -2.842965,0.4968 -3.781421,0.6624 -0.938457,0.1656 -3.671006,0.6349 -3.671006,0.6349 z"
         style="fill:none;stroke:#000000;stroke-width:0.87437367px;stroke-linecap:butt;stroke-linejoin:miter;stroke-opacity:1" />
      <path
         sodipodi:nodetypes="cccccscsc"
         inkscape:connector-curvature="0"
         id="path3883-5"
         d="m 48.070915,83.0587 c 0,0 1.932209,-1.3857 1.971241,-3.4545 0.039,-2.0688 2.283523,-3.5912 3.552143,-3.5326 1.26862,0.058 3.278901,0.8392 3.337458,3.3569 0.05858,2.5178 -2.615321,3.5912 -3.903457,3.6107 -1.288137,0.02 -3.142281,-0.5074 -2.986144,-3.5326 0.156137,-3.0252 -1.697999,-4.6061 -3.337449,-5.1721 0,0 3.216567,1.0614 3.337449,5.1819 0.05587,1.9038 -1.971241,3.5423 -1.971241,3.5423 z"
         style="fill:none;stroke:#000000;stroke-width:0.87437367px;stroke-linecap:round;stroke-linejoin:round;stroke-opacity:1" />
    </g>
    <path
       style="fill:none;stroke:#000000;stroke-width:0.87437367px;stroke-linecap:butt;stroke-linejoin:miter;stroke-opacity:1"
       d="m 37.289302,61.4063 c -0.331222,0 -0.441629,0.1518 -0.427831,0.4692 0.01382,0.3175 0.0828,0.345 0.455435,0.3588 0.372614,0.014 0.372614,-0.138 0.372614,-0.414 0,-0.276 -0.04136,-0.4002 -0.400218,-0.414 z"
       id="path3885-2"
       inkscape:connector-curvature="0"
       sodipodi:nodetypes="cccsc" />
    <path
       sodipodi:nodetypes="cccsc"
       inkscape:connector-curvature="0"
       id="path3887-5"
       d="m 35.35719,65.2015 c -0.331222,0 -0.441629,0.1518 -0.427831,0.4692 0.01382,0.3175 0.0828,0.3451 0.455435,0.3589 0.372614,0.014 0.372614,-0.138 0.372614,-0.4141 0,-0.276 -0.04136,-0.4002 -0.400218,-0.414 z"
       style="fill:none;stroke:#000000;stroke-width:0.87437367px;stroke-linecap:butt;stroke-linejoin:miter;stroke-opacity:1" />
    <path
       style="fill:none;stroke:#000000;stroke-width:0.87437367px;stroke-linecap:butt;stroke-linejoin:miter;stroke-opacity:1"
       d="m 40.311671,65.2291 c -0.331222,0 -0.441629,0.1518 -0.427831,0.4692 0.01382,0.3175 0.0828,0.3451 0.455435,0.3589 0.372614,0.014 0.372614,-0.138 0.372614,-0.4141 0,-0.276 -0.04136,-0.4002 -0.400218,-0.414 z"
       id="path3889-7"
       inkscape:connector-curvature="0"
       sodipodi:nodetypes="cccsc" />
    <path
       sodipodi:nodetypes="ccc"
       style="fill:none;stroke:#000000;stroke-width:0.87437367px;stroke-linecap:round;stroke-linejoin:round;stroke-opacity:1"
       d="m 62.338036,83.0002 c 0.221199,-1.0149 0.442389,-3.357 -0.156137,-5.0355 0.598526,1.6785 0.377336,4.0206 0.156137,5.0355 z"
       id="path3891-4"
       inkscape:connector-curvature="0" />
    <path
       sodipodi:nodetypes="ccc"
       style="fill:none;stroke:#000000;stroke-width:0.87437367px;stroke-linecap:round;stroke-linejoin:round;stroke-opacity:1"
       d="m 64.660591,82.9416 c 0.319514,-1.171 0.03332,-4.001 -0.273242,-5.2501 0.306565,1.2491 0.592756,4.0791 0.273242,5.2501 z"
       id="path3893-4"
       inkscape:connector-curvature="0" />
    <g
       id="g3537">
      <path
         inkscape:connector-curvature="0"
         id="path3902-7"
         d="m 86.012482,82.6098 c -2.654345,0.078 -2.927587,2.6544 -2.927587,3.4351 0,0.7807 0.07808,2.0688 2.537249,2.1469 2.459176,0.078 2.576272,-2.5763 2.576272,-3.1228 0,-0.5465 -0.07808,-2.1469 -2.185934,-2.4592 z"
         style="fill:none;stroke:#000000;stroke-width:0.87437367px;stroke-linecap:butt;stroke-linejoin:miter;stroke-opacity:1" />
      <path
         inkscape:connector-curvature="0"
         id="path3904-2"
         d="m 91.165044,74.2955 c -2.185934,0.078 -3.552143,2.0298 -3.630207,3.7473 -0.07808,1.7175 1.483305,2.6934 2.849514,2.7324 1.366209,0.039 3.161805,-1.21 3.356974,-3.7863 0.195169,-2.5763 -1.951725,-2.6544 -2.576281,-2.6934 z"
         style="fill:none;stroke:#000000;stroke-width:0.87437367px;stroke-linecap:butt;stroke-linejoin:miter;stroke-opacity:1" />
      <path
         inkscape:connector-curvature="0"
         id="path3906-8"
         d="m 92.258011,63.6391 c -1.951724,0 -3.239869,1.6004 -3.239869,3.9034 0,2.3031 1.249113,3.0447 2.576281,3.1228 1.327177,0.078 3.083732,-1.093 3.317942,-3.9815 0.234201,-2.8886 -2.068838,-3.0838 -2.654354,-3.0447 z"
         style="fill:none;stroke:#000000;stroke-width:0.87437367px;stroke-linecap:butt;stroke-linejoin:miter;stroke-opacity:1" />
    </g>
    <g
       id="g3588">
      <path
         sodipodi:nodetypes="cscscsc"
         inkscape:connector-curvature="0"
         id="path3908-6"
         d="m 42.202381,50.2829 c -2.732557,0 -4.333448,3.1465 -4.333448,4.913 0,1.7665 0.159888,2.3631 0.883249,3.0362 0.833767,0.3419 2.0201,0.4221 2.677349,0.6073 0.84475,0.2379 1.194981,0.6389 1.6009,0.828 1.232263,-0.585 4.775068,-2.3185 4.857871,-4.9959 0.102398,-3.3111 -3.919415,-4.361 -5.685921,-4.3886 z"
         style="fill:none;stroke:#000000;stroke-width:0.87437367px;stroke-linecap:butt;stroke-linejoin:miter;stroke-opacity:1" />
    </g>
    <g
       id="g3600">
      <path
         inkscape:connector-curvature="0"
         id="path3910-0"
         d="m 91.636821,39.68385 c -1.545683,-0.0828 -2.208126,1.07646 -2.180522,1.98731 0.02763,0.91086 0.44162,1.76651 1.628495,1.82171 1.186866,0.0552 2.180522,-1.18687 2.263325,-2.31853 0.0828,-1.13167 -1.186866,-1.46288 -1.711298,-1.49049 z"
         style="fill:none;stroke:#000000;stroke-width:0.87437367px;stroke-linecap:butt;stroke-linejoin:miter;stroke-opacity:1" />
    </g>
    <g
       id="g3575">
      <path
         inkscape:connector-curvature="0"
         id="path3912-4"
         d="m 69.832669,38.63744 c -2.224966,0 -3.571659,1.81511 -3.493595,2.92759 0.07808,1.11249 0.507452,2.1469 2.986144,2.22497 2.478692,0.0781 3.474079,-1.63945 3.532627,-2.67387 0.05858,-1.03441 -0.917315,-2.42014 -3.025176,-2.47869 z"
         style="fill:none;stroke:#000000;stroke-width:0.87437367px;stroke-linecap:butt;stroke-linejoin:miter;stroke-opacity:1" />
      <path
         sodipodi:nodetypes="cscsc"
         inkscape:connector-curvature="0"
         id="path3914-6"
         d="m 56.141184,38.20717 c -1.711298,-0.0552 -4.540466,1.6975 -4.457662,3.46399 0.0828,1.76651 1.669896,2.78776 3.243191,2.81536 1.573287,0.0276 4.812711,-0.99429 4.926878,-3.90562 0.07091,-1.80832 -2.752896,-2.41521 -3.712407,-2.37373 z"
         style="fill:none;stroke:#000000;stroke-width:0.87437367px;stroke-linecap:butt;stroke-linejoin:miter;stroke-opacity:1" />
      <path
         sodipodi:nodetypes="cccsc"
         inkscape:connector-curvature="0"
         id="path3916-7"
         d="m 39.497419,40.96733 c -2.304727,0 -4.595664,2.55313 -4.554263,3.6572 0.04144,1.10406 1.090265,2.19433 2.27714,2.20813 1.186866,0.0138 3.79396,-1.54417 4.071233,-3.89183 0.207008,-1.7527 -1.421487,-2.00111 -1.79411,-1.9735 z"
         style="fill:none;stroke:#000000;stroke-width:0.87437367px;stroke-linecap:butt;stroke-linejoin:miter;stroke-opacity:1" />
    </g>
    <g
       id="g3615">
      <path
         sodipodi:nodetypes="csssscscsscsc"
         inkscape:connector-curvature="0"
         id="path3918-1"
         d="m 35.814067,32.58709 c -1.190556,0.039 -6.304077,1.52234 -7.728842,3.70828 -1.424757,2.18593 2.634837,1.9322 3.356974,1.9322 0.722136,0 6.47973,-1.28813 7.377528,-1.8151 0.897789,-0.52697 17.877821,-3.61069 27.402242,-3.37649 9.52443,0.23421 17.40941,0.62456 18.190103,3.51311 2.654345,-0.85876 4.528006,-1.09297 7.104287,-0.93683 2.576272,0.15614 3.825376,1.21007 4.449932,1.56139 0.390347,-0.74166 1.092967,-2.81049 0.93683,-7.3385 C 96.746985,25.30715 99.231788,7.8995804 66.378115,6.9609104 44.518772,6.3363504 36.102331,17.1824 34.603995,18.50174 c -1.277521,0.10485 -7.248016,5.46937 -7.728842,13.36321 -0.28439,4.66888 1.210072,4.37187 1.210072,4.37187"
         style="fill:none;stroke:#000000;stroke-width:0.87437367px;stroke-linecap:round;stroke-linejoin:round;stroke-opacity:1" />
    </g>
    <g
       id="g3618">
      <path
         sodipodi:nodetypes="ccscccscc"
         inkscape:connector-curvature="0"
         id="path3920-0"
         d="m 66.143905,33.07502 c -2.537249,-0.1171 -10.734502,0.2342 -10.773534,0.74165 -0.039,0.50745 0.273241,-4.05959 4.215731,-4.33283 3.94249,-0.27324 6.050352,-2.38112 6.284561,-5.50387 0.819726,-0.1171 4.148589,0.12016 5.425804,-0.15614 0.13022,1.71968 -0.585525,2.81048 -0.546484,4.0596 0.039,1.2491 0.93683,1.87366 1.249104,1.91269 0.697191,0.0872 1.717515,1.52235 1.717515,3.5131 -2.342071,-0.19517 -6.401666,-0.2342 -7.572697,-0.2342 z"
         style="fill:none;stroke:#000000;stroke-width:0.87437367px;stroke-linecap:round;stroke-linejoin:round;stroke-opacity:1" />
    </g>
    <g
       id="g3612">
      <path
         sodipodi:nodetypes="ccsssscc"
         inkscape:connector-curvature="0"
         id="path3922-3"
         d="m 67.430231,6.9483704 c -10.368918,-0.46172 -19.616075,2.04644 -22.467697,4.1402396 -0.899896,2.48413 -1.048855,4.02983 -1.048855,5.2443 0,1.21447 1.214471,9.82616 10.488603,9.32934 9.274132,-0.49683 8.071518,-1.84027 12.857263,-1.83119 2.71166,0.005 4.916113,0.098 7.623113,0.0647 2.626881,-0.0323 12.242858,-3.36069 12.034294,-12.75194 C 85.536875,10.29406 78.091819,7.2244004 67.430231,6.9483804 z"
         style="fill:none;stroke:#000000;stroke-width:0.87437367px;stroke-linecap:round;stroke-linejoin:round;stroke-opacity:1" />
    </g>
    <g
       id="g3624">
      <path
         inkscape:connector-curvature="0"
         id="path3928-6"
         d="m 40.435876,28.2844 c -2.67735,0 -4.637067,1.13166 -4.554263,3.5882 0.0828,2.45654 1.738902,3.14658 4.195446,2.81536 2.456535,-0.33121 3.947028,-1.10406 3.919424,-3.75382 -0.02763,-2.64974 -3.118979,-2.67735 -3.560607,-2.64974 z"
         style="fill:none;stroke:#000000;stroke-width:0.87437367px;stroke-linecap:butt;stroke-linejoin:miter;stroke-opacity:1" />
    </g>
    <g
       id="g3621">
      <path
         sodipodi:nodetypes="ccssssc"
         inkscape:connector-curvature="0"
         id="path3930-4"
         d="m 34.667143,18.34782 c -0.165607,0.91085 0.331221,3.5054 1.048863,3.94703 -0.165606,0.30362 -0.883248,0.46922 -0.883248,1.57329 0,1.10406 0.883248,1.51808 1.794101,1.51808 0.910852,0 2.070115,-0.65835 2.070115,-2.15291 0,-1.32489 -1.435276,-1.24208 -1.959708,-1.24208 -0.690038,0 -1.02126,0.33122 -1.02126,0.33122"
         style="fill:none;stroke:#000000;stroke-width:0.87437367px;stroke-linecap:round;stroke-linejoin:round;stroke-opacity:1" />
    </g>
    <path
       style="fill:none;stroke:#000000;stroke-width:0.87437367px;stroke-linecap:round;stroke-linejoin:round;stroke-opacity:1"
       d="m 71.023225,16.48534 c 1.717515,0 11.59326,-1.09297 13.701121,-3.00566 -2.107861,1.91269 -11.983606,3.00566 -13.701121,3.00566 z"
       id="path3934-2"
       inkscape:connector-curvature="0"
       sodipodi:nodetypes="ccc" />
    <path
       style="fill:none;stroke:#000000;stroke-width:0.87437367px;stroke-linecap:round;stroke-linejoin:round;stroke-opacity:1"
       d="m 7.3691782,28.58801 c 0.1103984,-7.23162 8.1148608,-7.45243 9.1085168,-6.78999 -0.993656,-0.66244 -8.9981184,-0.44163 -9.1085168,6.78999 -0.1104072,7.23162 9.6605528,8.44609 9.6605528,8.44609 0,0 -9.77096,-1.21447 -9.6605528,-8.44609 z"
       id="path3069-2-0"
       inkscape:connector-curvature="0"
       sodipodi:nodetypes="scscs" />
    <path
       inkscape:connector-curvature="0"
       id="path3513"
       d="m 71.530668,11.56698 c 1.288145,0.039 9.016979,-0.3513 9.99285,-1.132 -0.975871,0.7807 -8.704705,1.171 -9.99285,1.132 z"
       style="fill:none;stroke:#000000;stroke-width:0.87437367px;stroke-linecap:round;stroke-linejoin:round;stroke-opacity:1"
       sodipodi:nodetypes="ccc" />
    <path
       inkscape:connector-curvature="0"
       id="path3517"
       d="m 71.686805,20.93528 c 1.756555,0.0781 7.884979,-0.15614 9.641535,-1.28815 -1.756556,1.13201 -7.88498,1.36625 -9.641535,1.28815 z"
       style="fill:none;stroke:#000000;stroke-width:0.87437367px;stroke-linecap:round;stroke-linejoin:round;stroke-opacity:1"
       sodipodi:nodetypes="ccc" />
    <path
       inkscape:connector-curvature="0"
       id="path3519"
       d="M 60.952311,24.52645 C 63.25535,18.55417 60.21065,9.6933204 58.297957,7.3122204 60.21065,9.6933204 63.25535,18.55417 60.952311,24.52645 z"
       style="fill:none;stroke:#000000;stroke-width:0.87437367px;stroke-linecap:round;stroke-linejoin:round;stroke-opacity:1"
       sodipodi:nodetypes="ccc" />
    <path
       inkscape:connector-curvature="0"
       id="path3521"
       d="m 52.247606,12.38671 c 1.834629,-0.89779 6.401666,-1.67848 7.689802,-1.32718 -1.288136,-0.3513 -5.855173,0.42939 -7.689802,1.32718 z"
       style="fill:none;stroke:#000000;stroke-width:0.87437367px;stroke-linecap:round;stroke-linejoin:round;stroke-opacity:1"
       sodipodi:nodetypes="ccc" />
    <path
       inkscape:connector-curvature="0"
       id="path3523"
       d="m 54.004162,17.61734 c 1.717523,-0.85876 5.308698,-1.9127 7.260423,-1.32717 -1.951725,-0.58553 -5.5429,0.46841 -7.260423,1.32717 z"
       style="fill:none;stroke:#000000;stroke-width:0.87437367px;stroke-linecap:round;stroke-linejoin:round;stroke-opacity:1"
       sodipodi:nodetypes="ccc" />
    <path
       inkscape:connector-curvature="0"
       id="path3525"
       d="m 54.706782,22.57473 c 1.444282,-0.97586 4.957384,-1.17104 6.557803,-0.70262 -1.600419,-0.46842 -5.113521,-0.27324 -6.557803,0.70262 z"
       style="fill:none;stroke:#000000;stroke-width:0.87437367px;stroke-linecap:round;stroke-linejoin:round;stroke-opacity:1"
       sodipodi:nodetypes="ccc" />
    <path
       inkscape:connector-curvature="0"
       id="path3527"
       d="m 85.426967,29.3277 c 2.732417,0.39035 6.089392,4.2938 6.089392,6.01132 0,-1.71752 -3.356975,-5.62097 -6.089392,-6.01132 z"
       style="fill:none;stroke:#000000;stroke-width:0.87437367px;stroke-linecap:round;stroke-linejoin:round;stroke-opacity:1"
       sodipodi:nodetypes="ccc" />
    <path
       sodipodi:nodetypes="ccc"
       inkscape:connector-curvature="0"
       id="path3529"
       d="m 86.676071,23.00411 c 3.47407,0.78068 9.797672,8.74373 10.031881,10.10994 -0.234209,-1.36621 -6.557811,-9.32926 -10.031881,-10.10994 z"
       style="fill:none;stroke:#000000;stroke-width:0.87437367px;stroke-linecap:round;stroke-linejoin:round;stroke-opacity:1" />
    <path
       inkscape:connector-curvature="0"
       id="path3535"
       d="m 66.417147,83.3515 c 0.797149,-1.8828 0.123505,-5.4261 -0.370831,-6.2846 0.494336,0.8585 1.16798,4.4018 0.370831,6.2846 z"
       style="fill:none;stroke:#000000;stroke-width:0.87437367px;stroke-linecap:round;stroke-linejoin:round;stroke-opacity:1"
       sodipodi:nodetypes="ccc" />
  </g>
</svg>
